HIERARCHY
ROOT Hips
{
  OFFSET 87.4673 23.7848 111.322
  CHANNELS 6 Xposition Yposition Zposition Zrotation Xrotation Yrotation
  JOINT LeftHip
  {
    OFFSET 3.43 0 0
    CHANNELS 6 Xposition Yposition Zposition Zrotation Xrotation Yrotation
    JOINT LeftKnee
    {
      OFFSET 0 -18.47 0
      CHANNELS 6 Xposition Yposition Zposition Zrotation Xrotation Yrotation
      JOINT LeftAnkle
      {
        OFFSET 0 -17.95 0
        CHANNELS 6 Xposition Yposition Zposition Zrotation Xrotation Yrotation
        End Site
        {
          OFFSET 0 -3.12 0
        }
      }
    }
  }
  JOINT RightHip
  {
    OFFSET -3.43 0 0
    CHANNELS 6 Xposition Yposition Zposition Zrotation Xrotation Yrotation
    JOINT RightKnee
    {
      OFFSET 0 -18.47 0
      CHANNELS 6 Xposition Yposition Zposition Zrotation Xrotation Yrotation
      JOINT RightAnkle
      {
        OFFSET 0 -17.95 0
        CHANNELS 6 Xposition Yposition Zposition Zrotation Xrotation Yrotation
        End Site
        {
          OFFSET 0 -3.12 0
        }
      }
    }
  }
  JOINT Chest
  {
    OFFSET 0 4.57 0
    CHANNELS 6 Xposition Yposition Zposition Zrotation Xrotation Yrotation
    JOINT CS_BVH
    {
      OFFSET 0 6.57 0
      CHANNELS 6 Xposition Yposition Zposition Zrotation Xrotation Yrotation
      JOINT LeftCollar
      {
        OFFSET 1.06 4.19 1.76
        CHANNELS 6 Xposition Yposition Zposition Zrotation Xrotation Yrotation
        JOINT LeftShoulder
        {
          OFFSET 5.81 0 0
          CHANNELS 6 Xposition Yposition Zposition Zrotation Xrotation Yrotation
          JOINT LeftElbow
          {
            OFFSET 0 -12.08 0
            CHANNELS 6 Xposition Yposition Zposition Zrotation Xrotation Yrotation
            JOINT LeftWrist
            {
              OFFSET 0 -9.82 0
              CHANNELS 6 Xposition Yposition Zposition Zrotation Xrotation Yrotation
              End Site
              {
                OFFSET 0 -7.37 0
              }
            }
          }
        }
      }
      JOINT RightCollar
      {
        OFFSET -1.06 4.19 1.76
        CHANNELS 6 Xposition Yposition Zposition Zrotation Xrotation Yrotation
        JOINT RightShoulder
        {
          OFFSET -6.06 0 0
          CHANNELS 6 Xposition Yposition Zposition Zrotation Xrotation Yrotation
          JOINT RightElbow
          {
            OFFSET 0 -11.08 0
            CHANNELS 6 Xposition Yposition Zposition Zrotation Xrotation Yrotation
            JOINT RightWrist
            {
              OFFSET 0 -9.82 0
              CHANNELS 6 Xposition Yposition Zposition Zrotation Xrotation Yrotation
              End Site
              {
                OFFSET 0 -7.14001 0
              }
            }
          }
        }
      }
      JOINT Neck
      {
        OFFSET 0 4.05 0
        CHANNELS 6 Xposition Yposition Zposition Zrotation Xrotation Yrotation
        JOINT Head
        {
          OFFSET 0 5.19 0
          CHANNELS 6 Xposition Yposition Zposition Zrotation Xrotation Yrotation
          End Site
          {
            OFFSET 0 4.14001 0
          }
        }
      }
    }
  }
}
MOTION
Frames:	7
Frame Time:	0.0333333
-95.5222 31.4645 -69.1429 6.92216 6.85972 -122.64 3.43 -7.10543e-015 -3.55271e-015 -1.68964 -4.86407 -12.3229 1.35003e-013 -18.47 5.38236e-013 -21.1619 57.4782 1.2043 -2.30926e-012 -17.95 3.82805e-012 20.5716 -8.78086 1.43373 -3.43 -7.10543e-015 -7.10543e-015 -11.1313 -57.5663 -13.1152 -1.1724e-013 -18.47 6.39488e-014 14.6892 45.7244 -1.64754 -2.33591e-012 -17.95 5.86198e-013 -1.40593 0.197419 -1.01065 1.42109e-014 4.57 -2.13163e-014 11.3263 8.036 -5.68909 -3.55271e-015 6.57 -1.42109e-014 4.49655 16.3191 -3.69135 1.06 4.19 1.76 16.8152 -2.16116 -4.05614 5.81 -2.13163e-014 2.20268e-013 75.0593 -35.4971 20.6784 -2.06839e-011 -12.08 -4.09273e-012 -94.4426 -38.9855 27.1114 2.81561e-010 -9.82 3.47882e-011 -4.40672 0.514959 15.8535 -1.06 4.19 1.76 -18.5169 1.00591 -5.44582 -6.06 -2.13163e-014 -2.70006e-013 1.91196 28.6887 22.4519 1.97957e-011 -11.08 5.81935e-012 -1.67014 -23.0122 -24.3038 -2.68081e-010 -9.82 6.861e-011 10.0965 -1.60539 -1.09455 3.55271e-015 4.05 -3.90799e-014 -1.22369 -16.2352 -7.04747 2.45137e-013 5.19 2.13163e-014 -4.88558 2.06103 1.44463 
-94.1053 29.8774 -67.3869 2.49432 3.41589 -126.824 3.43 -7.10543e-015 -3.55271e-015 -8.53668 -0.793034 -8.77445 1.35003e-013 -18.47 5.38236e-013 -22.2785 57.4715 -2.68665 -2.30926e-012 -17.95 3.82805e-012 44.1812 -18.9104 6.18536 -3.43 -7.10543e-015 -7.10543e-015 -12.9609 -52.6976 -7.86384 -1.1724e-013 -18.47 6.39488e-014 17.53 57.3508 -7.76519 -2.33591e-012 -17.95 5.86198e-013 -0.915931 -1.27836 -0.721513 1.42109e-014 4.57 -2.13163e-014 4.28793 7.554 -5.38998 -3.55271e-015 6.57 -1.42109e-014 2.33352 15.6325 -2.36404 1.06 4.19 1.76 14.9027 -0.386499 -1.99922 5.81 -2.13163e-014 2.20268e-013 90.557 -47.6969 55.644 -2.06839e-011 -12.08 -4.09273e-012 -71.5633 3.20484 13.8791 2.81561e-010 -9.82 3.47882e-011 -0.260409 0.0665641 2.20257 -1.06 4.19 1.76 -23.6951 0.952052 -0.697898 -6.06 -2.13163e-014 -2.70006e-013 8.18674 14.3644 17.1512 1.97957e-011 -11.08 5.81935e-012 1.24838 0.00143356 -21.9929 -2.68081e-010 -9.82 6.861e-011 8.63529 -1.23504 -0.17442 3.55271e-015 4.05 -3.90799e-014 -1.39847 -12.4341 -3.22071 2.45137e-013 5.19 2.13163e-014 -6.07184 -0.786734 2.49657 
-91.7444 27.0081 -65.0009 -2.12904 2.08996 -130.348 3.43 -7.10543e-015 -3.55271e-015 -12.555 -5.56357 -5.30024 1.35003e-013 -18.47 5.38236e-013 -29.9841 64.6042 5.77225 -2.30926e-012 -17.95 3.82805e-012 47.5469 -26.7919 9.82388 -3.43 -7.10543e-015 -7.10543e-015 -16.2941 -47.2422 -6.55566 -1.1724e-013 -18.47 6.39488e-014 36.9015 74.5787 -24.4416 -2.33591e-012 -17.95 5.86198e-013 -4.76893 -4.79834 -0.152713 1.42109e-014 4.57 -2.13163e-014 -1.27979 7.46777 -3.26212 -3.55271e-015 6.57 -1.42109e-014 1.1757 15.6703 -1.56507 1.06 4.19 1.76 14.0734 1.55538 -1.23909 5.81 -2.13163e-014 2.20268e-013 70.4607 -47.1553 35.3728 -2.06839e-011 -12.08 -4.09273e-012 -68.1309 0.0779645 24.3984 2.81561e-010 -9.82 3.47882e-011 0.106742 -0.0266506 0.856394 -1.06 4.19 1.76 -25.308 2.73405 0.036693 -6.06 -2.13163e-014 -2.70006e-013 8.82241 9.96719 12.8104 1.97957e-011 -11.08 5.81935e-012 -0.00724313 0.000688793 -22.0653 -2.68081e-010 -9.82 6.861e-011 8.01741 -1.27793 -1.01199 3.55271e-015 4.05 -3.90799e-014 -0.635203 -9.16048 -2.32544 2.45137e-013 5.19 2.13163e-014 -7.67534 -1.78782 3.13358 
-88.9389 25.5597 -61.6819 -4.15214 0.54713 -133.301 3.43 -7.10543e-015 -3.55271e-015 -16.9056 -17.4882 -7.02127 1.35003e-013 -18.47 5.38236e-013 -38.1229 69.9312 18.658 -2.30926e-012 -17.95 3.82805e-012 41.8649 -28.1275 9.01915 -3.43 -7.10543e-015 -7.10543e-015 -19.0481 -39.3997 -4.30882 -1.1724e-013 -18.47 6.39488e-014 88.1595 80.7369 -71.998 -2.33591e-012 -17.95 5.86198e-013 -7.40866 -6.997 -0.00371544 1.42109e-014 4.57 -2.13163e-014 -3.98847 7.46548 -0.489235 -3.55271e-015 6.57 -1.42109e-014 1.22297 15.6523 -0.984876 1.06 4.19 1.76 11.7659 4.32991 -1.28805 5.81 -2.13163e-014 2.20268e-013 47.4758 -31.6692 5.01561 -2.06839e-011 -12.08 -4.09273e-012 -62.5762 -6.17826 41.1577 2.81561e-010 -9.82 3.47882e-011 -0.339028 0.0632355 1.83152 -1.06 4.19 1.76 -27.4376 4.90398 2.05529 -6.06 -2.13163e-014 -2.70006e-013 8.61161 5.3356 14.2608 1.97957e-011 -11.08 5.81935e-012 1.17221 -0.314538 -25.4718 -2.68081e-010 -9.82 6.861e-011 5.74575 -0.869882 -0.510761 3.55271e-015 4.05 -3.90799e-014 -0.744114 -6.27218 -1.67543 2.45137e-013 5.19 2.13163e-014 -8.13355 -1.68092 3.18937 
-87.0289 26.3156 -58.2906 -6.11536 -0.874245 -138.65 3.43 -7.10543e-015 -3.55271e-015 -20.9403 -25.6233 -10.3162 1.35003e-013 -18.47 5.38236e-013 -33.4989 69.0756 20.4421 -2.30926e-012 -17.95 3.82805e-012 31.8334 -29.1669 7.33823 -3.43 -7.10543e-015 -7.10543e-015 -20.626 -29.7972 1.56296 -1.1724e-013 -18.47 6.39488e-014 93.0697 80.0558 -72.4271 -2.33591e-012 -17.95 5.86198e-013 -7.77788 -5.9894 0.0332052 1.42109e-014 4.57 -2.13163e-014 -5.80823 7.56063 1.68519 -3.55271e-015 6.57 -1.42109e-014 1.55006 15.6204 0.0144259 1.06 4.19 1.76 7.42994 7.25573 0.241531 5.81 -2.13163e-014 2.20268e-013 35.6281 -24.182 -6.61794 -2.06839e-011 -12.08 -4.09273e-012 -52.1462 0.0201033 35.0367 2.81561e-010 -9.82 3.47882e-011 2.61356 -0.286388 1.8886 -1.06 4.19 1.76 -32.7943 5.87971 5.43787 -6.06 -2.13163e-014 -2.70006e-013 7.28084 5.61597 20.0835 1.97957e-011 -11.08 5.81935e-012 2.95 -12.5959 -29.7759 -2.68081e-010 -9.82 6.861e-011 5.12824 -1.0542 -2.60791 3.55271e-015 4.05 -3.90799e-014 -3.24482 -3.80279 0.631533 2.45137e-013 5.19 2.13163e-014 -7.88188 -0.981907 3.35982 
-85.2441 28.1704 -54.9137 -6.56379 -1.94593 -143.317 3.43 -7.10543e-015 -3.55271e-015 -21.8602 -32.8894 -11.8822 1.35003e-013 -18.47 5.38236e-013 -26.3416 65.5908 18.5708 -2.30926e-012 -17.95 3.82805e-012 23.0132 -26.226 4.83912 -3.43 -7.10543e-015 -7.10543e-015 -21.1394 -24.61 5.60217 -1.1724e-013 -18.47 6.39488e-014 59.953 78.171 -38.4801 -2.33591e-012 -17.95 5.86198e-013 -6.76158 -5.045 0.0305006 1.42109e-014 4.57 -2.13163e-014 -7.32712 7.81789 2.64581 -3.55271e-015 6.57 -1.42109e-014 2.09806 15.9444 0.881142 1.06 4.19 1.76 5.50389 7.28537 2.92436 5.81 -2.13163e-014 2.20268e-013 27.9647 -12.5035 -16.4817 -2.06839e-011 -12.08 -4.09273e-012 -45.8397 -2.17047 29.3603 2.81561e-010 -9.82 3.47882e-011 2.298 -0.310178 0.811892 -1.06 4.19 1.76 -34.9829 4.38451 6.60392 -6.06 -2.13163e-014 -2.70006e-013 2.65087 7.16805 27.1147 1.97957e-011 -11.08 5.81935e-012 3.62377 -28.0058 -35.5795 -2.68081e-010 -9.82 6.861e-011 6.05453 -1.47374 -4.526 3.55271e-015 4.05 -3.90799e-014 -4.54383 -5.10525 2.64722 2.45137e-013 5.19 2.13163e-014 -8.60994 0.219288 3.68135 
-82.8139 31.1122 -51.0909 -8.41925 -5.82092 -143.685 3.43 -7.10543e-015 -3.55271e-015 -27.5139 -41.2004 -14.872 1.35003e-013 -18.47 5.38236e-013 -23.3312 59.8134 12.594 -2.30926e-012 -17.95 3.82805e-012 21.2002 -15.0967 2.36698 -3.43 -7.10543e-015 -7.10543e-015 -24.3524 -22.875 4.58254 -1.1724e-013 -18.47 6.39488e-014 29.9044 70.2922 -11.8754 -2.33591e-012 -17.95 5.86198e-013 -5.22276 -3.15076 0.14734 1.42109e-014 4.57 -2.13163e-014 -11.9337 8.58777 2.38362 -3.55271e-015 6.57 -1.42109e-014 1.27033 17.0322 1.31202 1.06 4.19 1.76 7.6646 5.72335 2.55391 5.81 -2.13163e-014 2.20268e-013 22.4608 -3.41404 -24.8825 -2.06839e-011 -12.08 -4.09273e-012 -40.4168 -9.64008 23.17 2.81561e-010 -9.82 3.47882e-011 -0.661595 -0.00591046 -1.65868 -1.06 4.19 1.76 -35.2811 3.02411 6.2769 -6.06 -2.13163e-014 -2.70006e-013 1.34127 7.39148 28.0621 1.97957e-011 -11.08 5.81935e-012 2.97263 -36.0832 -42.7817 -2.68081e-010 -9.82 6.861e-011 6.35377 -1.70935 -5.793 3.55271e-015 4.05 -3.90799e-014 -3.01492 -9.22873 2.46823 2.45137e-013 5.19 2.13163e-014 -8.35414 -0.759304 3.19113 
